<svg xmlns="http://www.w3.org/2000/svg" viewBox="0 0 882.49 548.64"><defs><style>.cls-1{fill:#fff;}</style></defs><g id="Layer_2" data-name="Layer 2"><g id="Layer_1-2" data-name="Layer 1"><path class="cls-1" d="M83.62,281.25c12.08-.14,24.62-.29,36.66-.78,0-26.69.14-53.48.2-70h-4c-4.25,12.73-19.5,29.42-39.89,39.3v31.59Z"/><path class="cls-1" d="M140.36,507.5c-18.13-23.65-19.13-50.42-19.81-75.68-.19-7.09-.27-93.44-.29-113.28-11.57.42-23.69.56-36.2.71l-7.13.08c.11,13.35.21,97,.29,105.78.12,13.46,1.58,72.55,38.13,94.11a83.36,83.36,0,0,0,30.28,11.24,122.09,122.09,0,0,0,23.83,1.48v-6.23C159.19,522.75,147.9,517.34,140.36,507.5Z"/><path class="cls-1" d="M343.62,70.81c12.08-.14,24.62-.29,36.66-.78,0-26.69.14-53.48.2-70h-4c-4.25,12.73-19.5,29.42-39.89,39.3V70.89Z"/><path class="cls-1" d="M400.36,297.06c-18.13-23.65-19.13-50.42-19.81-75.68-.19-7.09-.27-93.44-.29-113.28-11.57.42-23.69.56-36.2.71l-7.13.08c.11,13.35.21,97,.29,105.78.12,13.46,1.58,72.55,38.13,94.11A83.36,83.36,0,0,0,405.63,320a122.09,122.09,0,0,0,23.83,1.48v-6.23C419.19,312.31,407.9,306.9,400.36,297.06Z"/><path class="cls-1" d="M478.5,152.78q16.26,0,27.75,6.62a45.27,45.27,0,0,1,17.63,18A53.77,53.77,0,0,1,530,203.28c0,1.83-.08,3.71-.25,5.62a22,22,0,0,1-1,5.13h-74.5q.25,27,9.63,38.87t27.87,11.88q12.51,0,20.25-4A49.47,49.47,0,0,0,526.5,249l2.5,2.25a57.46,57.46,0,0,1-20.62,21.5q-12.88,7.74-30.88,7.75-17.75,0-31.5-7.63A53.86,53.86,0,0,1,424.5,251q-7.74-14.25-7.75-34,0-20.5,9-34.88a60.54,60.54,0,0,1,23.13-21.87A62.29,62.29,0,0,1,478.5,152.78Zm-.75,5a18.43,18.43,0,0,0-12.37,4.37q-5.13,4.38-8,15.5T454.25,209H497q2.5-27.25-2-39.25T477.75,157.78Z"/><path class="cls-1" d="M590.5,280.53a77.61,77.61,0,0,1-22-2.88,102.27,102.27,0,0,1-18-7.12l.25-29.75h2.5l8.5,15q5.5,10,12.13,14.87t16.87,4.88q12,0,19.38-5.38a16.91,16.91,0,0,0,7.37-14.37,18.27,18.27,0,0,0-5.25-13.5q-5.25-5.25-19.5-9.5l-10.5-3.25q-15.25-4.5-24-14t-8.75-23.25q0-16.5,13-28t37.25-11.5a77,77,0,0,1,18.38,2.12,72.29,72.29,0,0,1,16.62,6.38l-1.5,27h-2.5L622,172.78q-4.75-8.25-9.37-11.63t-13.88-3.37a29.35,29.35,0,0,0-16,4.75,15.1,15.1,0,0,0-7.5,13.5,16.25,16.25,0,0,0,6.38,13.5q6.38,5,18.87,9.25L611.75,202q18,5.5,25.75,15.12t7.75,23.13q0,18.25-14.37,29.25T590.5,280.53Z"/><path class="cls-1" d="M708.5,280.53q-16,0-24.88-8T674.75,247v-85.5H657.5V159l6-1a47.62,47.62,0,0,0,13.37-5A54.5,54.5,0,0,0,688,144.28l20.5-22.75H711l-.75,35h28v5H710v90q0,8.75,3.87,13.25a12.47,12.47,0,0,0,9.88,4.5,16.49,16.49,0,0,0,9.25-2.63,41.27,41.27,0,0,0,8-7.12l2.5,2.5a36.89,36.89,0,0,1-13.75,13.5Q721,280.53,708.5,280.53Z"/><path class="cls-1" d="M779.74,336.78q-10,0-15.87-5A16,16,0,0,1,758,319a14,14,0,0,1,5-11.25,16.91,16.91,0,0,1,11.25-4.25,19.61,19.61,0,0,1,10.5,2.62,24.1,24.1,0,0,1,7.5,7.63l1.75,2q5.5,7.5,11-.25,2.25-3.75,5.13-9.88t6.62-16.37l-48.5-116a33.65,33.65,0,0,0-3.75-7.63,15.16,15.16,0,0,0-6.5-4.87l-4.5-1.75v-2.5h62.25v2.25l-5,2c-3.66,1.17-5.54,3-5.62,5.62A27.58,27.58,0,0,0,807,176l26,67.5,24.75-68.25q2-5.75,1.5-9.63T853,160.28L847.74,159v-2.5h34.75V159l-5.5,1.75q-5.75,1.75-8,5a38.4,38.4,0,0,0-4.25,9L824.49,284.53q-9.75,26.25-19.5,39.25T779.74,336.78Z"/><path class="cls-1" d="M186.43,369.14a20,20,0,0,0,14.25-5.38,19.16,19.16,0,0,0,0-27.37,20.33,20.33,0,0,0-14.25-5.25,20.77,20.77,0,0,0-14.37,5.25,18.86,18.86,0,0,0,0,27.37A20.46,20.46,0,0,0,186.43,369.14Z"/><path class="cls-1" d="M212.93,487.89c-3.17-1-5.37-2.5-6.62-4.5a14.94,14.94,0,0,1-1.88-8v-57l.75-35.5-2.5-2.5-45.75,14.75v2.5l3.5.75c3.33.67,5.63,1.87,6.88,3.62s1.87,4.38,1.87,7.88v65.25a14.94,14.94,0,0,1-1.87,8c-1.25,2-3.55,3.5-6.88,4.5l-3.5,1v2.5h58.5v-2.5Z"/><path class="cls-1" d="M285.68,447.89q-17.25,0-29.25-5.75v8.5q0,7.75,7.75,9.25l47,8.75a126.94,126.94,0,0,1,21.25,5.87,37.46,37.46,0,0,1,15.25,10.25q5.74,6.63,5.75,18.13a36.27,36.27,0,0,1-8,22.62q-8,10.38-23.62,16.75t-38.88,6.38q-20,0-31.75-4.13t-16.62-10.62a22.57,22.57,0,0,1-4.88-13.75q0-9,6.13-18.13a48.64,48.64,0,0,1,15.12-14.62q-7.76-3-11.25-7.75a16.94,16.94,0,0,1-3.5-10.25,18,18,0,0,1,2.63-9.38,71.42,71.42,0,0,1,6.37-8.87l8.25-10.5q-18.26-10.5-18.25-33,0-18,12.88-29.25t37.87-11.25a75.41,75.41,0,0,1,22.38,3,43.22,43.22,0,0,1,15.87,8.5,68.3,68.3,0,0,0,15.13-4.13,44.94,44.94,0,0,0,12.87-7.87l3.5,2.5v12.75H327.43q9,10,9,25.75,0,17.5-12.87,28.87T285.68,447.89Zm-37.5,64.25q0,14.75,9.13,22.25t28.87,7.5q20.74,0,31.25-6.75t10.5-19a13.89,13.89,0,0,0-5.12-11.25q-5.13-4.26-17.38-6.5l-45.25-8.5-4-1a47,47,0,0,0-5.75,11.37A35.84,35.84,0,0,0,248.18,512.14Zm37.25-69.25q10,0,14.63-8.25t4.62-27.5q0-19.25-4.62-27.13t-14.13-7.87q-9.26,0-14,8.12t-4.75,27.38q0,19.26,4.38,27.25T285.43,442.89Z"/><path class="cls-1" d="M427.43,367.14q16.24,0,27.75,6.62a45.27,45.27,0,0,1,17.63,18,53.8,53.8,0,0,1,6.12,25.88c0,1.84-.08,3.71-.25,5.62a22.54,22.54,0,0,1-1,5.13h-74.5q.26,27,9.63,38.87t27.87,11.88q12.49,0,20.25-4a49.31,49.31,0,0,0,14.5-11.75l2.5,2.25a57.46,57.46,0,0,1-20.62,21.5q-12.88,7.74-30.88,7.75-17.74,0-31.5-7.63a53.79,53.79,0,0,1-21.5-21.87q-7.76-14.25-7.75-34,0-20.49,9-34.88a60.54,60.54,0,0,1,23.13-21.87A62.29,62.29,0,0,1,427.43,367.14Zm-.75,5a18.43,18.43,0,0,0-12.37,4.37q-5.13,4.38-8,15.5t-3.13,31.38h42.75q2.51-27.24-2-39.25T426.68,372.14Z"/><path class="cls-1" d="M496.18,491.14v-2.5l3.75-1q5-1.5,6.87-4.5a14.42,14.42,0,0,0,1.88-7.75V397.14c0-3.66-.63-6.38-1.88-8.13s-3.54-2.95-6.87-3.62l-3.75-1v-2.5l43-14.5,2.5,2.5,2.25,21.5v2a52.62,52.62,0,0,1,9.12-12.88,51.38,51.38,0,0,1,12.5-9.62,28.32,28.32,0,0,1,13.63-3.75q9.5,0,14.5,5.25a18.46,18.46,0,0,1,5,13.25q0,8.5-4.88,13.12a16.27,16.27,0,0,1-11.62,4.63q-10.5,0-18.5-10.5l-.5-.5c-1.67-2.33-3.59-3.63-5.75-3.88s-4.17.8-6,3.13A19,19,0,0,0,547.3,397a66.81,66.81,0,0,0-3.12,7.13v69.75q0,10,8.75,12.5l8,2.25v2.5Z"/><path class="cls-1" d="M651.93,494.89a77.61,77.61,0,0,1-22-2.88,101.51,101.51,0,0,1-18-7.12l.25-29.75h2.5l8.5,15q5.49,10,12.12,14.87t16.88,4.88q12,0,19.37-5.38a16.9,16.9,0,0,0,7.38-14.37,18.27,18.27,0,0,0-5.25-13.5q-5.25-5.25-19.5-9.5l-10.5-3.25q-15.25-4.5-24-14t-8.75-23.25q0-16.5,13-28t37.25-11.5a76.91,76.91,0,0,1,18.37,2.12,72.54,72.54,0,0,1,16.63,6.38l-1.5,27h-2.5l-8.75-15.5q-4.75-8.25-9.38-11.63t-13.87-3.37a29.44,29.44,0,0,0-16,4.75,15.1,15.1,0,0,0-7.5,13.5,16.24,16.24,0,0,0,6.37,13.5q6.38,5,18.88,9.25l11.25,3.25q18,5.5,25.75,15.12t7.75,23.13q0,18.25-14.38,29.25T651.93,494.89Z"/><path class="cls-1" d="M294.83,277.28c.11-.3.21-.61.31-.92.07-3.45-.75-8.56-4.14-15.59-3.08-6.4,1.39-5.2,7.49-1.75a55.78,55.78,0,0,0-.28-10.69h0a43.26,43.26,0,0,0-7.73-19.16,40.59,40.59,0,0,0-12.9,1.15c-8.09,1.87-3.78-4,2.51-10.4-5.44-3.09-13.19-5.5-23.77-4.53a44.37,44.37,0,0,0-15.23,4s-1.23.59-2.91,1.6a41.48,41.48,0,0,0,3.42,11.53c3.74,8.53-5,3.54-13.42-2.44-8.68,11.9-7.35,26.09-7.16,27.72v0a10,10,0,0,0,19.88-2.23c0-.08-.79-8.66,4-14.41,2.8-3.38,7.14-5.3,13.26-5.85s10.7.53,14,3.34c5.64,4.77,6.36,13.33,6.36,13.33l0,.32c.93,10.26-1.1,17.89-6.21,23.34-4.68,5-11.89,8.41-20.92,10.72.34,8.84-.5,15.94-5.17,9.16a45.84,45.84,0,0,0-5.75-7,55.2,55.2,0,0,1-5.75.71c-8.27.92-20.28,1.35-33.34,1.49,0,9.47-1.16,17.67-5.68,10.27a39.86,39.86,0,0,0-8.47-10.23c-14.45,0-29-.34-40.43-.65l-2.9-.08c0,9.76-1,18.54-5.68,11-3.66-6-7.14-9.4-9.94-11.34-15.43-.33-31-.44-46.24.24l-1.93.11c2.34,9,3.26,16.86-2.93,11-6.86-6.53-12.2-8.6-15.52-9.18a117.11,117.11,0,0,0-29.25,7.84c5,4.62,7.44,8.37.49,7.47a38.27,38.27,0,0,0-14.06.39,37.9,37.9,0,0,0-7.48,6.54A44,44,0,0,0,3,327.39c0,.12-.09.25-.14.37,7.31-.61,12.25.13,6.59,4.73A38.39,38.39,0,0,0,0,343a49.46,49.46,0,0,0,1.82,13.76c1.94,7,6.87,12,13.37,16C21,364,27.83,355.64,27.3,365.16a38.12,38.12,0,0,0,1.47,14.21c1.67.68,3.37,1.34,5.08,2a11.24,11.24,0,0,0,14.22-5.75l.1-.22c2.57-5.55-1.53-10.09-6.93-12.95-5.76-3.06-11.73-1.91-20.15-11.06-4.12-4.49-2.3-12.2.46-16.58,8.65-13.71,24.94-22.25,55.18-24.53a0,0,0,0,0,0,0c4.93-.45,17.94-.7,17.94-.7,17.06-.34,34.6.12,51.67.58h0l16.29.42c72.71,3.06,104.4-.08,124.25-21.24a41.81,41.81,0,0,0,7.91-12Z"/><path class="cls-1" d="M554.83,66.84c.11-.3.21-.61.31-.92.07-3.45-.75-8.56-4.14-15.59-3.08-6.4,1.39-5.2,7.49-1.75a55.78,55.78,0,0,0-.28-10.69h0a43.26,43.26,0,0,0-7.73-19.16,40.59,40.59,0,0,0-12.9,1.15c-8.09,1.87-3.78-4,2.51-10.4C534.65,6.39,526.9,4,516.32,5a44.37,44.37,0,0,0-15.23,4s-1.23.59-2.91,1.6a41.48,41.48,0,0,0,3.42,11.53c3.74,8.53-5,3.54-13.42-2.44-8.68,11.9-7.35,26.09-7.16,27.72v0a10,10,0,0,0,19.88-2.23c0-.08-.79-8.66,4-14.41,2.8-3.38,7.14-5.3,13.26-5.85s10.7.53,14,3.34c5.64,4.77,6.36,13.33,6.36,13.33l0,.32c.93,10.26-1.1,17.89-6.21,23.34-4.68,5-11.89,8.41-20.92,10.72.34,8.84-.5,15.94-5.17,9.16a45.84,45.84,0,0,0-5.75-7,55.2,55.2,0,0,1-5.75.71c-8.27.92-20.28,1.35-33.34,1.49,0,9.47-1.16,17.67-5.68,10.27a39.86,39.86,0,0,0-8.47-10.23c-14.45,0-29-.34-40.43-.65l-2.9-.08c0,9.76-1.05,18.54-5.68,11-3.66-6-7.14-9.4-9.94-11.34-15.43-.33-31-.44-46.24.24l-1.93.11c2.34,9,3.26,16.86-2.93,11C330.34,84,325,82,321.68,81.39a117.11,117.11,0,0,0-29.25,7.84c5.05,4.62,7.44,8.37.49,7.47a38.27,38.27,0,0,0-14.06.39,37.9,37.9,0,0,0-7.48,6.54A44,44,0,0,0,263,117c-.05.12-.09.25-.14.37,7.31-.61,12.25.13,6.59,4.73A38.39,38.39,0,0,0,260,132.52a49.46,49.46,0,0,0,1.82,13.76c1.94,7,6.87,12,13.37,16,5.84-8.77,12.64-17.11,12.11-7.59a38.12,38.12,0,0,0,1.47,14.21c1.67.68,3.37,1.34,5.08,2a11.24,11.24,0,0,0,14.22-5.75l.1-.22c2.57-5.55-1.53-10.09-6.93-13-5.76-3.06-11.73-1.91-20.15-11.06-4.12-4.49-2.3-12.2.46-16.58,8.65-13.71,24.94-22.25,55.18-24.53a0,0,0,0,0,0,0c4.93-.45,17.94-.7,17.94-.7,17.06-.34,34.6.12,51.67.58h0l16.29.42c72.71,3.06,104.4-.08,124.25-21.24a41.81,41.81,0,0,0,7.91-12Z"/></g></g></svg>