<?xml version="1.0" encoding="UTF-8"?><svg id="Layer_2" xmlns="http://www.w3.org/2000/svg" viewBox="0 0 552.61 121.93"><g id="Layer_1-2"><g><path d="M229.66,78.31c-.52,3.23-1.14,6.45-1.69,9.68-.12,.73-.09,1.5-.13,2.42,.63-.12,1.23-.24,1.82-.36v-11.73Z"/><path d="M217.51,42.53c4.08,.65,8.14,.34,12.16-.23v-.39h-12.16c0,.21,0,.42,0,.63Z"/><path d="M166.06,92.06c-4.22-.84-8.42-.53-12.61,0v.6c4.21,.48,8.41-.05,12.61-.6Z"/><path d="M296,42.26v.14c4.46,.76,8.92,.39,13.38-.23v-.28c-4.46-.7-8.92-.18-13.38,.37Z"/><path d="M280.95,41.45c-2.67,.22-5.29,.44-7.91,.66l-.02,.52c2.53,.12,5.06,.24,7.71,.36v-.07c1.28-.12,2.53-.24,3.8-.35v-.99c-1.18-.06-2.37-.13-3.58-.19v.07Z"/><path d="M284.53,92.62v-1.06c-3.35-.07-6.69,.35-10.04,.77,3.35,.64,6.7,.6,10.04,.3Z"/><path d="M220.03,85.83c.36,.05,.88,.35,1.04,.21,1.43-1.27,2.12-.35,2.68,.83,2.03,.08,2.52-1.2,2.83-2.79,.43-2.22,.95-4.42,1.54-6.6,.14-.5,.75-.86,1.14-1.29,.11,.36,.29,.73,.39,1.09v-7.21h12.41v-22.51c-.49,.04-1,.03-1.51-.01h-3.37c-1.02,2.97-2.13,6.26-3.31,9.54-.23,.63-.79,1.13-1.2,1.69-.14-.71-.51-1.46-.39-2.11,.58-3.05,1.25-6.08,1.9-9.12h-4.52v-3.11c-1.38,.09-2.75,.18-4.12,.29-3.17,.25-6.28,.18-9.26-.96v41.37c.21,0,.45,.05,.76,.21,.85,.44,1.98,.32,2.98,.47Z"/><path d="M274.17,90.13c3.42-.81,6.87-1.32,10.36-1.35V44.62c-1.25,.04-2.51,.04-3.8,.08h0c-3.27,.35-6.35,.15-9.36-1.1v46.6c.94,.2,1.83,.16,2.8-.07Z"/><path d="M188.94,91.93h-10.85v.95c3.64,.05,7.26-.38,10.85-.95Z"/><path d="M178.09,41.67v1.17c3-.02,5.99-.4,8.98-.79-3-.6-5.99-.61-8.98-.38Z"/><path d="M166.61,46.92c-.52-.12-1.11,0-1.86,.35-.57,.26-1.34,.11-2.01,.13-.32,0-.65-.05-.97-.07-.99-.06-1.98-.12-3.08-.19-1.25,3.74-2.59,7.77-3.94,11.8-.23-.02-.46-.03-.69-.05-.13-.5-.45-1.03-.37-1.5,.38-2.22,.87-4.43,1.32-6.64,.46-2.24,.92-4.47,1.35-6.57-.98,.05-1.95,.11-2.9,.18v45.24c1.15-.2,2.29-.38,3.43-.52,3.27-.38,6.52-.51,9.73,.05V46.92Z"/><path d="M209.94,41.93h-12.57v.89c4.22,.24,8.41-.23,12.57-.89Z"/><path d="M210.45,92.03v-.12h-13.08v.74c4.39,.56,8.77,.07,13.08-.61Z"/><path d="M191.17,66.54h6.2v23.34c4.32-.97,8.68-1.42,13.08-.93v-9.64c-.02-.09-.04-.17-.07-.26-.29-1.18-.56-2.37-.71-3.57-.06-.44,.26-.93,.41-1.4,.11,.1,.24,.2,.37,.29v-30.11c-3.19,.6-6.5,.31-9.73,.56-2.45,.19-4.84-.09-7.13-.94h-2.42v-.65c-.13,.02-.25,.04-.36,.07-4.22,1.18-8.45,1.73-12.72,1.54v44.34c2.94-.4,5.9-.55,8.89-.32,1.41,.11,2.86,.25,4.19,.68v-23.01Z"/><path d="M382.83,41.55c-.07,.43-.15,.83-.24,1.19,2.11-.14,4.21-.4,6.32-.7-2.03-.38-4.06-.51-6.08-.48Z"/><path d="M394.76,50.28c.21-.92,.4-1.91,.56-2.97-.45-.09-.9-.2-1.35-.32-1.25,3.63-2.52,7.32-3.79,11,2.21-1.55,3.74-4.11,4.58-7.71Z"/><path d="M407.49,90.25c1.69-.38,3.38-.71,5.08-.96V44.79c-.48,0-.97-.01-1.45-.02-1.93-.02-3.85-.72-5.85-1.13-1.16,1.52-.65,3.04,.4,4.52,1.37,1.94,2.79,3.84,4.09,5.82,.29,.44,.17,1.14,.24,1.72-.51-.21-1.2-.27-1.5-.64-1.77-2.24-3.57-4.47-5.11-6.86-.83-1.3-1.83-1.62-3.02-1.15-.18,.07-.35,.12-.52,.17v41.67c2.03,.19,4.05,.62,6.04,1.42,.45,.18,1.07,.06,1.58-.05Z"/><path d="M395.23,92.73v-1.19c-2.92,.04-5.83,.41-8.75,.78,2.92,.6,5.84,.62,8.75,.41Z"/><path d="M399.87,91.81v.44c.5-.06,1-.13,1.5-.19-.5-.1-1-.18-1.5-.25Z"/><path d="M309.38,92.13c-.5,.06-1.01,.12-1.51,.19,.5,.1,1.01,.18,1.51,.25v-.43Z"/><path d="M412.57,42.84v-1.1c-1.7,.15-3.39,.37-5.09,.58,1.7,.35,3.39,.5,5.09,.52Z"/><path d="M412.57,91.86c-1.3,.14-2.6,.3-3.9,.47,1.3,.24,2.6,.39,3.9,.46v-.92Z"/><path d="M359.36,42.78c.03-.4,.06-.8,.09-1.22-2.79,.08-5.58,.41-8.37,.79,2.76,.47,5.52,.56,8.28,.43Z"/><path d="M358.75,92.84v-1.15c-1.91,.15-3.82,.39-5.73,.65,1.91,.36,3.82,.5,5.73,.5Z"/><path d="M363.99,41.69v.69c.87-.11,1.75-.22,2.62-.35-.87-.16-1.75-.26-2.62-.34Z"/><path d="M363.99,91.58v.95c1.31-.14,2.62-.31,3.92-.5-1.31-.25-2.62-.39-3.92-.45Z"/><path d="M377.37,42.75v-.83c-1.11,.13-2.23,.27-3.34,.42,1.11,.21,2.23,.34,3.34,.41Z"/><path d="M423.45,91.94v.19c.22-.03,.45-.06,.67-.09-.22-.04-.45-.07-.67-.1Z"/><path d="M124.04,92.84v-1.18c-2.02,.15-4.05,.41-6.07,.65,2.02,.42,4.05,.55,6.07,.53Z"/><path d="M31.9,92.03c-4.35-.79-8.69-.52-13.03,0v.63c4.35,.41,8.69,.02,13.03-.63Z"/><path d="M104.61,92.7v-1.18c-3.21,0-6.42,.39-9.64,.81,3.22,.59,6.43,.61,9.64,.37Z"/><path d="M118.56,89.93c1.82-.42,3.65-.74,5.48-.94V44.67c-1.6,.05-3.19,.1-4.79,.14-.6,.02-1.27,0-1.8-.24-2.04-.96-4.04-1.06-6.12-.83v14.7l-1.53-14.49c-.38,.07-.77,.14-1.16,.22-3.64,.74-7.48,.64-11.23,.59-1.87-.02-3.74-.68-5.67-1.09v4.15c.07,.11,.14,.22,.22,.33,1.37,1.94,2.79,3.84,4.09,5.82,.29,.44,.17,1.14,.24,1.72-.51-.21-1.2-.27-1.5-.64-1.03-1.3-2.07-2.61-3.06-3.94v39.03c.15,.06,.3,.1,.45,.16,.45,.18,1.07,.06,1.58-.05,3.58-.81,7.18-1.39,10.83-1.48v-27.81l3.06,27.86c.3,.02,.6,.03,.91,.05,1.53,.13,3.14,.26,4.54,.82,1.86,.74,3.56,.66,5.44,.24Z"/><path d="M0,91.68v1.16c3.02-.01,6.03-.39,9.05-.81-3.02-.59-6.03-.59-9.05-.36Z"/><path d="M0,64.37v24.7c4.39-.51,8.76-.51,13.01,1v-25.7H0Z"/><path d="M305.84,90.34c1.22-.21,2.39-.42,3.54-.62v-19.64h12.41v-22.52h-1.51c-.66,.1-1.37,.08-2.1,0h-3.01c-1.2,3.56-2.52,7.48-3.85,11.4-.32-.05-.63-.1-.95-.14,0-.95-.15-1.92,.03-2.83,.56-2.82,1.23-5.61,1.85-8.42h-2.87v-3.16c-2.91,.21-5.78,.41-8.64,.36-1.58-.03-3.16-.4-4.74-.79v41.61c.69,.14,1.37,.33,2.02,.26,.34-.04,.75,.32,1.06,.24,1.8-.42,1.8-.45,2.82,.81,2.84-.03,2.52-2.44,3.02-4.14,.51-1.74,.76-3.55,1.26-5.29,.14-.48,.75-.83,1.15-1.24,.15,.52,.49,1.06,.42,1.54-.51,3.27-1.13,6.52-1.68,9.79-.14,.85-.15,1.73-.23,2.8Z"/><path d="M30.05,42.04c-3.73-.73-7.45-.56-11.17-.16v.92c3.73,.23,7.45-.24,11.17-.75Z"/><path d="M107.99,91.7l.07,.65c.78-.09,1.57-.2,2.35-.3-.81-.16-1.62-.26-2.42-.35Z"/><path d="M505.23,89.66c1.9,.71,3.65,.72,5.6,.27,1.9-.43,3.8-.77,5.72-.97v-13.44c0-4.72-.42-8.56-1.25-11.53-.83-2.97-2.29-4.84-4.35-5.61,2.52-1.5,4.23-4.2,5.14-8.1,.38-1.62,.67-3.49,.9-5.57-.85,.02-1.7,.05-2.55,.11-2.9,.23-5.72-.2-8.4-1.46-.42-.2-1.05-.18-1.52-.05-.28,.08-.56,.14-.84,.21-.44,1.28-1.05,1.93-1.81,1.93h-3.18v-.93c-4.42,.61-8.86,.46-13.38-.56v5.54c.91,1.32,1.8,2.64,2.65,3.99,.39,.62,.48,1.43,.71,2.15-.7-.35-1.61-.53-2.06-1.08-.45-.55-.87-1.13-1.3-1.7v37.5c.26-.02,.52-.06,.75-.11,4.14-.94,8.32-1.56,12.55-1.47v-22.57c1.74,0,3.01,.42,3.79,1.26,.78,.84,1.18,3.01,1.18,6.5v15.26c.57,.11,1.12,.24,1.65,.44Z"/><path d="M447.71,94.27c.09,1.62,.22,3.18,.38,4.66,.33-1.62,.66-3.22,.97-4.74-.46,.02-.9,.06-1.35,.08Z"/><path d="M487.15,92.54c3.84,.55,7.66,.39,11.46-.05v-.56h-11.47c0,.2,0,.4,.01,.61Z"/><path d="M348.11,89.65c1.9,.75,3.66,.73,5.6,.28,1.67-.38,3.35-.68,5.04-.89v-13.52c0-4.72-.42-8.56-1.25-11.53-.83-2.97-2.29-4.84-4.35-5.61,2.52-1.5,4.23-4.2,5.14-8.1,.39-1.66,.69-3.58,.91-5.71-2,.03-4,.05-6,.09-.16,0-.36,.02-.49-.05-2.31-1.3-4.62-1.11-6.96-.73-.43,1.05-.99,1.57-1.68,1.57h-3.18v-.91c-3.26,.25-6.58,.14-9.86,.07-1.18-.02-2.34-.49-3.52-.86v5.08c1.25,1.72,2.51,3.43,3.69,5.19,.29,.44,.23,1.11,.33,1.68-.56-.22-1.33-.27-1.65-.67-.81-1.04-1.59-2.1-2.36-3.18v38.46c.5,.1,1.09,.03,1.59-.08,3.87-.89,7.76-1.45,11.71-1.44v-22.57c1.74,0,3.01,.42,3.79,1.26,.78,.84,1.18,3.01,1.18,6.5v15.13c.8,.11,1.59,.28,2.33,.57Z"/><path d="M330.08,92.35c3.58,.6,7.16,.58,10.73,.26v-1.05c-3.58-.1-7.15,.31-10.73,.79Z"/><path d="M384.51,90.34c2.42-.41,4.63-.86,6.86-1.15,1.29-.17,2.58-.3,3.86-.38v-13.29c0-4.72-.42-8.56-1.25-11.53-.78-2.79-2.11-4.59-3.98-5.44-.05,.13-.09,.27-.14,.4-.24-.03-.47-.07-.71-.1-.1-.53-.37-1.08-.29-1.57,.34-2.12,.75-4.23,1.19-6.33,.48-2.29,1.02-4.57,1.51-6.77-3.37,.18-6.61,.48-9.8,.57-.35,.47-.75,.71-1.22,.71h-3.18v-.86c-1.76-.28-3.51-.85-5.28-1.17-.7-.13-1.46-.14-2.15,0-1.4,.26-2.77,.89-4.16,.96-.6,.03-1.19,.05-1.79,.07v44.33c1.61,.03,3.23,.17,4.85,.45,.2,.04,.42-.03,.82-.06-.85-3.17-1.7-6.23-2.5-9.3-.35-1.33-.67-2.69-.84-4.05-.07-.55,.28-1.16,.44-1.74,.39,.44,.98,.82,1.14,1.34,.63,2.06,1.11,4.16,1.68,6.23,.45,1.64,.95,3.26,1.45,4.95,1.38-1.11,1.38-1.2,4.56-.98,.58,.04,1.15,.21,1.71,.28v-19.69c1.74,0,3.01,.42,3.79,1.26,.78,.84,1.18,3.01,1.18,6.5v12.23c.3-.36,.51-.85,.64-1.52,.46-2.49,1.17-4.94,1.88-7.37,.12-.43,.71-.73,1.09-1.09,.16,.45,.52,.94,.45,1.36-.56,3.65-1.2,7.3-1.79,10.95-.09,.56-.01,1.15-.01,1.82Z"/><path d="M108.66,42.06c-4.98-1.02-9.93-.37-14.88,.26,4.98,1.03,9.93,.38,14.88-.26Z"/><path d="M124.04,42.79v-1.23c-2.69,.1-5.38,.43-8.08,.77,2.7,.5,5.39,.59,8.08,.46Z"/><path d="M80.27,46.99c-1.36,3.95-2.74,7.95-4.12,11.96-.24-.03-.47-.07-.71-.1-.1-.53-.37-1.08-.29-1.57,.34-2.12,.75-4.23,1.19-6.33,.48-2.29,1.02-4.57,1.52-6.77-1.37,.07-2.71,.17-4.05,.26v45.38c1.3-.23,2.58-.45,3.85-.62,2.97-.4,5.93-.59,8.85-.27V47.1c-2.15,.79-4.2,.44-6.25-.11Z"/><path d="M86.52,92.2v-.33c-4.25-.66-8.48-.22-12.71,.32v.3c4.25,.69,8.48,.25,12.71-.28Z"/><path d="M155.46,39.16c-.67-2.58-1.34-5.14-2-7.7v7.57c.46,.06,.93,.12,1.39,.2,.15,.03,.32-.04,.61-.07Z"/><path d="M153.81,42.05c-.12-.02-.24-.04-.36-.06v.11c.12-.02,.24-.03,.36-.05Z"/><path d="M69.1,42.72v-1.17c-2.93,.04-5.86,.39-8.78,.79,2.93,.55,5.86,.59,8.78,.38Z"/><path d="M76.95,39.17c-.85-3.17-1.7-6.23-2.5-9.3-.25-.95-.46-1.91-.64-2.87v11.92c.77,.08,1.55,.17,2.32,.31,.2,.04,.42-.03,.82-.06Z"/><path d="M37.38,42.35c4.14,.7,8.28,.57,12.41,.09v-.79c-4.14-.31-8.27,.14-12.41,.7Z"/><path d="M49.85,92.57c-.02-.32-.03-.66-.04-1-3.5-.12-7,.29-10.49,.77,3.52,.66,7.03,.58,10.53,.23Z"/><path d="M40.01,89.93c3.23-.74,6.49-1.19,9.77-1.17V44.46c-3.43,.11-6.86,.13-10.29,.19-.17,0-.36,.02-.49-.05-.78-.44-1.56-.71-2.34-.85v44.43c0,.68,0,1.36,.02,2.02,1.09,.11,2.18,0,3.33-.27Z"/><path d="M75.21,42.03c-.46-.09-.93-.15-1.39-.21v.41c.46-.06,.93-.13,1.39-.19Z"/><path d="M32.14,43.86c-1.02,.16-2.04,.36-3.08,.49-3.36,.42-6.78,.37-10.19,.29v44.87c3.63-.63,7.28-.92,10.99-.64,.75,.06,1.52,.11,2.28,.22V43.86Z"/><path d="M61.87,85.61c1.14,.08,2.21,.67,3.4-.02,.21-.12,1,.78,1.6,1.28,1.21,0,1.9-.57,2.23-1.82V44.7c-1.22,.05-2.43,.08-3.64,.06-2.36-.04-4.71-.91-7.07-1.34-.7-.13-1.46-.14-2.15,0-.08,.02-.17,.04-.25,.06v38.6c.42,1.49,.87,2.97,1.32,4.51,1.38-1.11,1.38-1.2,4.56-.98Z"/><path d="M328.87,42.31c4.01,.82,8.02,.57,12.02,.09v-.75c-4.01-.34-8.01,.16-12.02,.66Z"/><path d="M76.42,94.77c-.87-.01-1.74-.16-2.61-.36v7.76c.42,.6,.85,1.2,1.25,1.81,.29,.44,.17,1.14,.24,1.72-.51-.21-1.2-.27-1.5-.64v15.78h12.71v-26.46c-3.3,.52-6.73,.44-10.1,.4Z"/><path d="M98.26,94.81c-.6,.02-1.27,0-1.8-.24-1.58-.74-3.13-.97-4.71-.93v27.19h12.86v-26.22c-2.12,.08-4.23,.14-6.35,.2Z"/><path d="M65.69,97.04c-2.21,.88-4.31,.51-6.41-.05-1.36,3.95-2.74,7.95-4.12,11.96-.24-.03-.47-.07-.71-.1-.1-.53-.37-1.08-.29-1.57,.34-2.12,.75-4.23,1.19-6.33,.48-2.29,1.02-4.57,1.52-6.77-.37,.02-.73,.05-1.09,.07-.39,3.76-1.31,5.65-2.77,5.65-1.15,0-1.97-.8-2.47-2.42-.23-.73-.4-1.69-.52-2.86-1.86,.11-3.71,.19-5.55,.16-2.36-.04-4.71-.91-7.07-1.34-.2-.04-.4-.04-.61-.06,.38,8.42,1.73,15.05,4.05,19.88,2.78,5.78,6.8,8.68,12.05,8.68s9.27-2.89,12.05-8.68c1.86-3.88,3.1-8.93,3.71-15.13-.82-1.23-1.8-1.54-2.97-1.08Z"/><path d="M179.72,94.82c-.55,.04-1.09,.06-1.63,.05v25.96h13.08v-26.99c-3.71,1.14-7.63,.68-11.45,.98Z"/><path d="M31.07,94.38c-4.07,.19-8.16,.2-12.24,.27-.19,3.48-1.16,5.23-2.91,5.23-1.02,0-1.76-.63-2.22-1.9-.41-1.12-.62-2.58-.67-4.35-1.64,.12-3.29,.51-4.96,.72-2.66,.34-5.36,.37-8.06,.33,.02,5.85,.74,10.79,2.14,14.83,1.43,4.11,3.37,7.2,5.81,9.29,2.44,2.09,5.14,3.13,8.11,3.13,3.14,0,5.92-1.26,8.33-3.78,2.42-2.52,4.31-6.1,5.68-10.75,1.12-3.81,1.78-8.2,1.98-13.16-.33,.07-.66,.12-1,.13Z"/><path d="M122.9,94.77c-2.26-.03-4.54-.71-6.75-1.32-.95-.26-1.68-.36-2.63,.03-1.21,.49-2.54,.83-3.84,.91-.47,.03-.93,.04-1.4,.06l2.9,26.39h12.86v-26.08c-.38,0-.76,.02-1.14,.01Z"/><path d="M153.46,94.49v9.41c.22,.54,.32,1.16,.5,1.73-.16-.08-.33-.15-.5-.22v15.42h13.16v-26.77c-4.35,.88-8.72,1.07-13.16,.42Z"/><path d="M20.61,39.11c3.89-.48,7.75-.57,11.54,.39V1.09h-13.27V39.35c.58-.09,1.15-.17,1.73-.24Z"/><path d="M92.07,27.3c.12-.43,.71-.73,1.09-1.09,.16,.45,.52,.94,.45,1.36-.56,3.65-1.2,7.3-1.79,10.95-.09,.56-.01,1.15-.01,1.82,2.42-.41,4.63-.86,6.86-1.15,3.58-.48,7.14-.66,10.64,0L105.28,1.09h-13.53V28.4c.11-.37,.21-.74,.32-1.11Z"/><path d="M113.2,40.3c.45,.18,1.07,.06,1.58-.05,3.07-.7,6.15-1.22,9.26-1.41V1.09h-12.71V39.66c.62,.18,1.24,.39,1.86,.64Z"/><path d="M152.66,24.07l.03,.02h.77v.62c.07,.08,.12,.16,.15,.25,.92,3.22,1.75,6.47,2.64,9.7,.18,.66,.51,1.29,.8,1.99,.95-1.18,3.41-1.51,5.29-.92,.52,.16,1.24,.15,1.72-.09,1.36-.66,1.57,.52,2.12,1.2,.16,.01,.3,0,.44,0v-12.76h7.81V1.09h-28.78V24.09h7v-.02Z"/><path d="M49.78,38.81v-7.72c0-6.03,1.1-9.05,3.29-9.05,1.94,0,2.92,2.95,2.92,8.84v8.96c1.68,.53,3.28,.48,5.02,.08,2.68-.61,5.38-1.02,8.1-1.14v-7.5c0-10.25-1.38-18.03-4.13-23.34-2.75-5.31-6.78-7.96-12.09-7.96s-9.34,2.65-12.09,7.96c-2.75,5.31-4.13,13.09-4.13,23.34v8.86c4.33-.98,8.69-1.55,13.12-1.35Z"/><path d="M74.05,24.07c.39,.44,.98,.82,1.14,1.34,.63,2.06,1.11,4.16,1.68,6.23,.45,1.64,.95,3.26,1.45,4.95,1.38-1.11,1.38-1.2,4.56-.98,1.14,.08,2.21,.67,3.4-.02,.05-.03,.14,0,.24,.08V1.09h-12.71V24.75c.08-.23,.17-.45,.23-.68Z"/><path d="M204.54,94.74c-2.44,.2-4.84,.19-7.17-.33v26.44h13.08v-26.5c-1.99,.12-3.96,.24-5.91,.4Z"/><path d="M411.96,94.81c-.6,.02-1.27,0-1.8-.24-2.91-1.36-5.71-1.02-8.81-.39-.49,.1-.99,.18-1.49,.25v26.41h12.71v-26.04c-.2,0-.41,.01-.61,.02Z"/><path d="M229.66,94.13c-.64-.2-1.3-.43-1.96-.6-1.72,2.84,.59,4.74,1.79,6.83,.79,1.37,1.94,2.54,2.83,3.86,.25,.36,.15,.96,.21,1.45-.48-.12-1.15-.09-1.4-.39-1.72-2.14-3.44-4.3-5-6.56-1.45-2.1-1.67-1.95-4.08-1.3-1.73,.47-3.75-.09-5.75-.19l-.02,.05v23.56h27.17v-23.34h-13.79v-3.37Z"/><path d="M493.43,94.82c-2.81,.22-5.53-.17-8.12-1.34v27.36h13.31v-26.17c-1.73,.04-3.47,.02-5.18,.16Z"/><path d="M429.86,93.45c-.95-.26-1.68-.36-2.63,.03-1.19,.48-2.5,.82-3.78,.9v26.46h13.16v-26.07c-2.26-.03-4.53-.71-6.74-1.32Z"/><path d="M466.64,94.41c-.34,3.11-1.06,4.89-2.16,5.35,.84,1.23,1.68,2.47,2.47,3.73,.39,.62,.48,1.43,.71,2.15-.7-.35-1.61-.53-2.06-1.08-1.66-2.05-3.2-4.21-4.73-6.36-1.02-1.43-1.87-1.63-3.41-.92-.57,.26-1.34,.11-2.01,.13-.32,0-.65-.05-.97-.07-.99-.06-1.98-.12-3.08-.19-.79,2.36-1.62,4.84-2.46,7.36,.68,3.38,1.6,6.29,2.78,8.74,2.78,5.78,6.8,8.68,12.05,8.68s9.27-2.89,12.05-8.68c2.25-4.68,3.59-11.04,4.01-19.09-4.37,.84-8.75,.96-13.2,.25Z"/><path d="M539.83,98.71c-1.45-2.1-1.67-1.95-4.08-1.3-1.73,.47-3.75-.09-5.75-.19-.09,.25-.18,.52-.26,.77v22.84h12.41v-18.96c-.8-1.04-1.58-2.09-2.32-3.17Z"/><path d="M507.87,93.3c-.32-.16-.81-.34-1.07-.21-1.06,.51-2.13,.86-3.22,1.09v26.66h12.97v-26c-2.98,.11-5.9-.18-8.68-1.53Z"/><path d="M191.17,40.09V1.09h-13.08V39.06c4.42-.5,8.82-.55,13.08,1.02Z"/><path d="M309.38,94.55c-1.17-.17-2.33-.67-3.51-.99-1.16,1.91-1.11,2.85,.31,4.81,1.35,1.87,2.73,3.73,4.02,5.65,.29,.44,.23,1.11,.33,1.68-.56-.22-1.33-.27-1.65-.67-1.59-2.04-3.07-4.16-4.56-6.28-1.57-2.23-1.89-2.05-4.49-1.3-1.15,.34-2.46,.15-3.82-.03v23.42h27.17v-23.34h-13.79v-2.95Z"/><path d="M390.13,94.77c-1.93-.02-3.85-.72-5.85-1.13-1.16,1.52-.65,3.04,.4,4.52,1.37,1.94,2.79,3.84,4.09,5.82,.29,.44,.17,1.14,.24,1.72-.51-.21-1.2-.27-1.5-.64-1.77-2.24-3.57-4.47-5.11-6.86-.05-.07-.1-.14-.15-.2v22.85h12.97v-26.06c-1.7,.04-3.41,.01-5.1,0Z"/><path d="M279.74,94.76c-2.42-.05-4.83-.89-7.24-1.36-.36-.07-.77-.23-1.13-.27v27.71h13.16v-26.2c-1.6,.09-3.2,.15-4.79,.12Z"/><path d="M332.2,94.66c-.16,0-.36,.02-.49-.05-1.4-.79-2.79-1.03-4.2-1.01v27.24h13.31v-26.32c-2.87,.07-5.74,.09-8.61,.14Z"/><path d="M372.98,96.99c-1.36,3.95-2.74,7.95-4.12,11.96-.24-.03-.47-.07-.71-.1-.1-.53-.37-1.08-.29-1.57,.34-2.12,.75-4.23,1.19-6.33,.48-2.29,1.02-4.57,1.51-6.77-2.25,.12-4.43,.3-6.58,.43v26.25h13.31v-23.31c-1.46,.13-2.89-.15-4.31-.54Z"/><path d="M358.16,94.76c-2.36-.04-4.71-.91-7.07-1.34-.7-.13-1.46-.14-2.15,0-1.06,.2-2.1,.61-3.15,.82v26.6h12.97v-26.08c-.2,0-.39,0-.59,0Z"/><path d="M526.23,39.66c1.9,.71,3.65,.72,5.6,.27,1.29-.3,2.59-.54,3.89-.74l-3.44-38.11h-13.04l4.97,38.06c.69,.11,1.38,.27,2.02,.51Z"/><path d="M480,88.18V46.88c-.44-.02-.93,.12-1.53,.39-.57,.26-1.34,.11-2.01,.13-.32,0-.65-.05-.97-.07-.99-.06-1.98-.12-3.08-.19-1.25,3.74-2.59,7.77-3.94,11.8-.23-.02-.46-.03-.69-.05-.13-.5-.45-1.03-.37-1.5,.38-2.22,.87-4.43,1.32-6.64,.46-2.24,.92-4.47,1.35-6.57-1.08,.06-2.14,.13-3.19,.19v44.96c0,.11,0,.21,0,.31,1.24-.22,2.48-.42,3.72-.56,3.16-.37,6.3-.5,9.4,0,0-.3,0-.6,0-.9Z"/><path d="M486.04,42.33c4.23,.85,8.44,.51,12.64,0v-.59c-4.23-.49-8.44,.01-12.64,.59Z"/><path d="M479.77,92.06c-4.34-.87-8.65-.52-12.95,.03,0,.18-.02,.35-.03,.52,4.34,.56,8.66,0,12.98-.56Z"/><path d="M508.15,42.54c3.01,.44,6.02,.42,9.01,.19,.02-.26,.04-.53,.06-.79h-9.07c0,.2,0,.4,.01,.61Z"/><path d="M545.95,41.9h-14.74c0,.21,0,.42,0,.63,4.95,.79,9.88,.17,14.74-.63Z"/><path d="M530.75,85.36c.85,.44,1.98,.32,2.98,.47,.36,.05,.88,.35,1.04,.21,1.43-1.27,2.12-.35,2.68,.83,2.03,.08,2.52-1.2,2.83-2.79,.43-2.22,.95-4.42,1.54-6.6,.12-.43,.6-.77,.98-1.13l4.18-32.13c-2.62,.16-5.19,.31-7.75,.51-3.57,.29-7.07,.17-10.37-1.43-.32-.16-.81-.34-1.07-.21-.96,.47-1.95,.79-2.94,1.02l4.88,37.33v3.73c.26-.07,.57-.04,1.01,.19Z"/><path d="M516.55,92.86v-.95h-6.34c0,.21,0,.42,0,.63,2.12,.34,4.23,.41,6.34,.33Z"/><path d="M460.67,42.77v-1.22c-2.67,.09-5.33,.44-7.99,.75,2.67,.55,5.33,.62,7.99,.46Z"/><path d="M436.6,42.82v-1.21c-2.31,.14-4.62,.42-6.93,.71,2.31,.43,4.62,.55,6.93,.5Z"/><path d="M447.55,86.83v1.35c0,.36,0,.7,0,1.05,.15,.02,.32-.04,.6-.07-.2-.78-.41-1.56-.61-2.33Z"/><path d="M436.6,91.76c-1.64,.15-3.28,.36-4.92,.55,1.64,.34,3.28,.48,4.92,.52v-1.07Z"/><path d="M468.56,39.23c.15,.03,.32-.04,.61-.07-.77-2.97-1.54-5.9-2.29-8.83,0,.19,0,.37,0,.56v8.1c.56,.07,1.12,.14,1.68,.24Z"/><path d="M455.04,85.73c.52,.16,1.24,.15,1.72-.09,1.36-.66,1.57,.52,2.12,1.2,.81,.07,1.38-.1,1.79-.48V44.73c-1.02,.04-2.05,.05-3.07,.04-2.26-.03-4.54-.71-6.75-1.32-.95-.26-1.68-.36-2.63,.03-.22,.09-.45,.17-.67,.24v35.78c.46,1.72,.92,3.45,1.4,5.16,.18,.66,.51,1.29,.8,1.99,.95-1.18,3.41-1.51,5.29-.92Z"/><path d="M467.52,42.05c-.21-.04-.43-.07-.64-.11v.19c.21-.03,.43-.06,.64-.08Z"/><path d="M271.37,40.33c.17-.02,.33-.05,.49-.07,2.98-.51,5.95-1.05,9.09-1.61v.26c1.2-.13,2.39-.19,3.58-.18v-14.66h7.81V1.09h-28.78V24.09h7.81v16.25Z"/><path d="M308.48,38.87c.3,.02,.6,.05,.9,.08v-10.46c-.24-1.01-.49-2.02-.71-3.03-.09-.41,.32-.92,.49-1.39,.06,.06,.14,.12,.21,.19v-.03h12.93V1.09h-26.31V39.94c4.1-.91,8.26-1.38,12.48-1.07Z"/><path d="M328.33,26.22c.15,.52,.49,1.06,.42,1.54-.38,2.43-.82,4.86-1.24,7.28v5.19c2.37-.41,4.58-.84,6.8-1.12,2.2-.27,4.4-.42,6.58-.32v-15.52h3.06c1.1,0,1.84,.73,2.24,2.18,.4,1.45,.6,4.51,.6,9.19,0,1.95-.07,3.63-.2,5.06,.54,.16,1.08,.33,1.61,.54,.55,.21,1.29,.13,1.9-.01,3.13-.72,6.29-1.23,9.48-1.39,.05-1.33,.07-2.73,.07-4.19,0-6.76-.29-12.64-.88-17.66-.59-5.01-1.74-8.91-3.46-11.7s-4.26-4.18-7.62-4.18h-20.18V26.97c.25-.26,.58-.49,.82-.75Z"/><path d="M364.57,38.87c1.53,.11,3.14,.23,4.55,.78,1.9,.75,3.66,.73,5.6,.28,.88-.2,1.77-.37,2.65-.53V23.27h3.06c1.1,0,1.84,.73,2.24,2.18,.4,1.45,.6,4.51,.6,9.19,0,1.56-.04,2.93-.13,4.15,2.22-.07,4.45,.04,6.7,.44,.2,.04,.42-.03,.82-.06-.85-3.17-1.7-6.23-2.5-9.3-.35-1.33-.67-2.69-.84-4.05-.07-.55,.28-1.16,.44-1.74,.39,.44,.98,.82,1.14,1.34,.63,2.06,1.11,4.16,1.68,6.23,.45,1.64,.95,3.26,1.45,4.95,1.31-1.05,1.39-1.19,4.11-1.01,0-.32,0-.63,0-.95,0-6.76-.29-12.64-.88-17.66-.59-5.01-1.74-8.91-3.46-11.7-1.72-2.79-4.26-4.18-7.62-4.18h-20.18V38.84c.19,.01,.39,.01,.58,.03Z"/><path d="M207.98,38.87c.82,.06,1.66,.14,2.47,.27V1.09h-13.08V39.45c3.5-.58,7.03-.86,10.61-.58Z"/><path d="M399.98,35.6c.21-.12,1,.78,1.6,1.28,1.33,0,2.04-.68,2.32-2.21,.46-2.49,1.17-4.94,1.88-7.37,.12-.43,.71-.73,1.09-1.09,.16,.45,.52,.94,.45,1.36-.56,3.65-1.2,7.3-1.79,10.95-.09,.56-.01,1.15-.01,1.82,2.42-.41,4.63-.86,6.86-1.15,.07,0,.13-.02,.2-.02V1.09h-12.71V35.65s.08-.03,.11-.05Z"/><path d="M218.13,39.93c3.81-.87,7.66-1.35,11.54-1.13v-14.58h1.37s.04-.09,.05-.14c.05,.05,.12,.09,.17,.14h11.34V1.09h-26.31V40.21c.6-.04,1.21-.13,1.84-.28Z"/><path d="M542.15,93.74c-.25-.08-.49-.15-.74-.22-1.28,2.12-.33,3.71,.74,5.26v-5.04Z"/><path d="M547.12,39.23c.14,.03,.31-.04,.53-.09v-.04c-.86-3.38-1.73-6.72-2.57-10.06-.29-1.18-.56-2.37-.71-3.57-.06-.44,.26-.93,.41-1.4,.39,.35,1,.64,1.13,1.07,.85,2.83,1.65,5.69,2.45,8.54l4.25-32.6h-13.01l-3.44,38.05c3.62-.5,7.27-.56,10.95,.1Z"/><path d="M432.26,89.93c1.44-.33,2.89-.59,4.34-.79V44.7c-1.21,.04-2.43,.07-3.64,.11-.6,.02-1.27,0-1.8-.24-2.56-1.2-5.04-1.08-7.72-.6v45.01c1.16,.12,2.33,.3,3.37,.71,1.86,.74,3.56,.66,5.44,.24Z"/><path d="M541.55,90.41c.21-.04,.4-.08,.6-.12v-4.93c-.16,.88-.32,1.75-.47,2.63-.12,.73-.09,1.5-.13,2.42Z"/><path d="M485.84,27.94c-.16,1.08-.35,2.16-.53,3.24v8.92c2.13-.38,4.2-.78,6.29-1.02,2.37-.28,4.74-.43,7.09-.27v-15.54h3.06c1.1,0,1.84,.73,2.24,2.18,.4,1.45,.6,4.51,.6,9.19,0,2.06-.08,3.81-.22,5.28,.32,.11,.64,.2,.95,.33,.5,.2,1.18,.13,1.74,0,3.41-.77,6.85-1.32,10.32-1.45,.05-1.33,.07-2.71,.07-4.16,0-6.76-.29-12.64-.88-17.66-.59-5.01-1.74-8.91-3.46-11.7s-4.26-4.18-7.62-4.18h-20.18V26.21c.2,.58,.62,1.2,.53,1.74Z"/><path d="M423.45,39.26c1.16,.24,2.31,.58,3.46,1.04,.45,.18,1.07,.06,1.58-.05,2.69-.61,5.39-1.08,8.12-1.32v-14.84h7.81V1.09h-28.78V24.09h7.81v15.18Z"/><path d="M447.82,39.7c1.86,.74,3.56,.66,5.44,.24,2.46-.56,4.93-.95,7.41-1.1v-7.73c0-6.03,1.1-9.05,3.29-9.05,1,0,1.73,.78,2.22,2.32,.07-.1,.13-.2,.18-.3,.32,.3,.84,.54,.94,.9,.92,3.22,1.75,6.47,2.64,9.7,.18,.66,.51,1.29,.8,1.99,.95-1.18,3.41-1.51,5.29-.92,.52,.16,1.24,.15,1.72-.09,1.36-.66,1.57,.52,2.12,1.2,.04,0,.07,0,.11,0v-5.55c0-10.25-1.38-18.03-4.13-23.34-2.75-5.31-6.78-7.96-12.09-7.96s-9.34,2.65-12.09,7.96c-2.75,5.31-4.13,13.09-4.13,23.34v8.31c.09,.03,.18,.05,.27,.09Z"/></g></g></svg>