<svg width="36" height="27" viewBox="0 0 36 27" fill="none" xmlns="http://www.w3.org/2000/svg">
<g clip-path="url(#clip0_670_4756)">
<path d="M0.90599 13.9604C1.33098 12.4946 2.10416 10.8847 3.51305 9.80719C6.89687 7.21946 10.7271 7.07698 14.3413 6.98081C17.193 6.90423 30.5193 6.94875 35.9995 6.97012V6.40556C34.1763 5.80003 31.7889 3.62192 30.3765 0.713623H25.232C23.0356 0.734995 17.7929 0.774176 15.3002 0.797328C13.3734 0.815138 4.92014 1.02173 1.83632 6.23815C0.97563 7.69319 0.522073 8.89534 0.22744 10.5605C0.102444 11.264 -0.0457651 12.703 0.0167328 13.9622H0.90599V13.9604Z" fill="black"/>
<path d="M0.90599 26.4272C1.33098 24.9614 2.10416 23.3515 3.51305 22.274C6.89687 19.6863 10.7271 19.5438 14.3413 19.4476C17.193 19.371 30.5193 19.4155 35.9995 19.4369V18.8724C34.1781 18.2668 31.7907 16.0887 30.3765 13.1804H25.232C23.0356 13.2018 17.7929 13.241 15.3002 13.2641C13.3734 13.2819 4.92014 13.4885 1.83632 18.7049C0.97563 20.16 0.522073 21.3621 0.22744 23.0273C0.102444 23.7308 -0.0457651 25.1698 0.0167328 26.429H0.90599V26.4272Z" fill="black"/>
</g>
<defs>
<clipPath id="clip0_670_4756">
<rect width="35.9988" height="25.7134" fill="white" transform="translate(0 0.713623)"/>
</clipPath>
</defs>
</svg>
