<?xml version="1.0" encoding="UTF-8"?><svg id="Layer_2" xmlns="http://www.w3.org/2000/svg" viewBox="0 0 36 27"><defs><style>.cls-1{fill:none;}</style></defs><g id="Layer_1-2"><g><path d="M12.65,24.18c-.53-.97-.96-2.18-.79-3.45,.41-3.05,2.29-5.08,4.09-6.97,1.42-1.49,8.24-8.28,11.05-11.06l-.29-.29c-1.24,.62-3.57,.73-5.78-.04l-2.63,2.63c-1.11,1.13-3.77,3.83-5.03,5.11-.97,.99-5.18,5.41-4.1,9.65,.3,1.18,.69,2.03,1.39,3.03,.3,.42,.95,1.23,1.63,1.84l.45-.45h0Z"/><path d="M23.35,24.18l.45,.45c.67-.61,1.33-1.42,1.63-1.84,.7-1,1.08-1.85,1.39-3.03,1.09-4.24-3.12-8.66-4.1-9.65-1.26-1.28-3.92-3.98-5.03-5.11l-2.63-2.63c-2.21,.76-4.54,.66-5.78,.04l-.29,.29c2.81,2.79,9.63,9.57,11.05,11.06,1.8,1.89,3.68,3.92,4.09,6.97,.17,1.27-.26,2.49-.79,3.45h0Z"/><rect class="cls-1" width="36" height="27"/></g></g></svg>